<svg xmlns="http://www.w3.org/2000/svg" viewBox="0 0 24 24" width="24" height="24" fill="#ffffff">
  <path d="M17.5 12.5c0-1.58-1.14-2.32-1.14-2.32s.95-.92.95-2.37c0-1.8-1.5-2.4-2.25-2.4-.23 0-.48.03-.74.1-.13.04-.27.06-.41.06-.14 0-.28-.02-.41-.06-.26-.07-.51-.1-.74-.1-.75 0-2.25.6-2.25 2.4 0 1.45.95 2.37.95 2.37s-1.14.74-1.14 2.32c0 2.55 2.14 2.85 2.14 2.85s.36 1.11 1.45 1.11c.44 0 .78-.09 1.45-.09s1.01.09 1.45.09c1.09 0 1.45-1.11 1.45-1.11s2.14-.3 2.14-2.85zm-8.5-9.5h-4v18h4v-18zm1 0v18h4v-18h-4z"/>
</svg>