<svg width="219" height="56" viewBox="0 0 219 56" fill="none" xmlns="http://www.w3.org/2000/svg">
<path d="M22.9997 5C35.7026 5 45.9997 15.2971 45.9997 28V44.1C45.9997 45.93 45.2728 47.685 43.9788 48.979C42.6848 50.273 40.9297 51 39.0997 51H24.1497V40.9099C24.1497 38.6076 24.29 36.2225 25.4975 34.2629C26.362 32.8586 27.5185 31.6566 28.8884 30.7385C30.2583 29.8204 31.8096 29.2077 33.4371 28.9419L33.8776 28.8706C34.0592 28.8085 34.2168 28.6912 34.3284 28.5351C34.44 28.379 34.5 28.1919 34.5 28C34.5 27.8081 34.44 27.621 34.3284 27.4649C34.2168 27.3088 34.0592 27.1915 33.8776 27.1294L33.4371 27.0581C31.0591 26.6697 28.8632 25.5441 27.1594 23.8403C25.4556 22.1365 24.3301 19.9406 23.9416 17.5626L23.8703 17.1222C23.8082 16.9406 23.6909 16.7829 23.5348 16.6713C23.3787 16.5597 23.1916 16.4997 22.9997 16.4997C22.8078 16.4997 22.6208 16.5597 22.4647 16.6713C22.3086 16.7829 22.1913 16.9406 22.1292 17.1222L22.0579 17.5626C21.7922 19.1902 21.1795 20.7415 20.2614 22.1114C19.3433 23.4814 18.1412 24.6378 16.7368 25.5022C14.7772 26.7097 12.3921 26.85 10.0898 26.85H0.0273438C0.628794 14.6818 10.6832 5 22.9997 5Z" fill="#5F6FFF"/>
<path d="M0 29.15H10.0901C12.3924 29.15 14.7775 29.2903 16.7371 30.4978C18.2689 31.4417 19.5583 32.7311 20.5022 34.2629C21.7097 36.2225 21.85 38.6076 21.85 40.9099V51H6.9C5.07001 51 3.31496 50.273 2.02096 48.979C0.726962 47.685 0 45.93 0 44.1L0 29.15ZM46 7.3C46 7.91 45.7577 8.49501 45.3263 8.92635C44.895 9.35768 44.31 9.6 43.7 9.6C43.09 9.6 42.505 9.35768 42.0737 8.92635C41.6423 8.49501 41.4 7.91 41.4 7.3C41.4 6.69 41.6423 6.10499 42.0737 5.67365C42.505 5.24232 43.09 5 43.7 5C44.31 5 44.895 5.24232 45.3263 5.67365C45.7577 6.10499 46 6.69 46 7.3Z" fill="#5F6FFF"/>
<path d="M64.848 25.126V21.352H70.39C71.1153 21.352 71.7727 21.2047 72.362 20.91C72.9513 20.6153 73.416 20.196 73.756 19.652C74.096 19.0853 74.266 18.4053 74.266 17.612C74.266 16.8413 74.096 16.1727 73.756 15.606C73.416 15.0393 72.9513 14.6087 72.362 14.314C71.7727 14.0193 71.1153 13.872 70.39 13.872H64.848V10.098H70.866C72.3847 10.098 73.7447 10.404 74.946 11.016C76.17 11.628 77.1333 12.5007 77.836 13.634C78.5387 14.7447 78.89 16.0707 78.89 17.612C78.89 19.1533 78.5387 20.4907 77.836 21.624C77.1333 22.7347 76.17 23.596 74.946 24.208C73.7447 24.82 72.3847 25.126 70.866 25.126H64.848ZM61.448 34V10.098H66.072V34H61.448ZM81.9232 34V17.578H86.3772V34H81.9232ZM86.3772 24.922L84.6432 23.766C84.8472 21.7487 85.4365 20.162 86.4112 19.006C87.3858 17.8273 88.7912 17.238 90.6272 17.238C91.4205 17.238 92.1345 17.374 92.7692 17.646C93.4038 17.8953 93.9818 18.3147 94.5032 18.904L91.7152 22.1C91.4658 21.828 91.1598 21.624 90.7972 21.488C90.4572 21.352 90.0605 21.284 89.6072 21.284C88.6552 21.284 87.8732 21.59 87.2612 22.202C86.6718 22.7913 86.3772 23.698 86.3772 24.922ZM103.457 34.34C101.734 34.34 100.204 33.9773 98.8669 33.252C97.5295 32.504 96.4642 31.484 95.6709 30.192C94.9002 28.9 94.5149 27.4267 94.5149 25.772C94.5149 24.14 94.8889 22.6893 95.6369 21.42C96.4075 20.128 97.4502 19.108 98.7649 18.36C100.08 17.5893 101.542 17.204 103.151 17.204C104.738 17.204 106.132 17.5667 107.333 18.292C108.557 18.9947 109.509 19.9693 110.189 21.216C110.892 22.44 111.243 23.834 111.243 25.398C111.243 25.6927 111.22 25.9987 111.175 26.316C111.152 26.6107 111.096 26.9507 111.005 27.336L97.2009 27.37V24.038L108.931 24.004L107.129 25.398C107.084 24.4233 106.902 23.6073 106.585 22.95C106.29 22.2927 105.848 21.794 105.259 21.454C104.692 21.0913 103.99 20.91 103.151 20.91C102.267 20.91 101.496 21.114 100.839 21.522C100.182 21.9073 99.6715 22.4627 99.3089 23.188C98.9689 23.8907 98.7989 24.7293 98.7989 25.704C98.7989 26.7013 98.9802 27.574 99.3429 28.322C99.7282 29.0473 100.272 29.614 100.975 30.022C101.678 30.4073 102.494 30.6 103.423 30.6C104.262 30.6 105.021 30.464 105.701 30.192C106.381 29.8973 106.97 29.4667 107.469 28.9L110.087 31.518C109.294 32.4473 108.319 33.15 107.163 33.626C106.03 34.102 104.794 34.34 103.457 34.34ZM119.641 34.374C118.712 34.374 117.794 34.2493 116.887 34C116.003 33.7507 115.187 33.4107 114.439 32.98C113.691 32.5267 113.045 31.9827 112.501 31.348L115.153 28.662C115.72 29.2967 116.377 29.7727 117.125 30.09C117.873 30.4073 118.701 30.566 119.607 30.566C120.333 30.566 120.877 30.464 121.239 30.26C121.625 30.056 121.817 29.75 121.817 29.342C121.817 28.8887 121.613 28.5373 121.205 28.288C120.82 28.0387 120.31 27.8347 119.675 27.676C119.041 27.4947 118.372 27.302 117.669 27.098C116.989 26.8713 116.332 26.588 115.697 26.248C115.063 25.8853 114.541 25.398 114.133 24.786C113.748 24.1513 113.555 23.3353 113.555 22.338C113.555 21.2953 113.805 20.3887 114.303 19.618C114.825 18.8473 115.561 18.2467 116.513 17.816C117.465 17.3853 118.587 17.17 119.879 17.17C121.239 17.17 122.463 17.408 123.551 17.884C124.662 18.36 125.58 19.074 126.305 20.026L123.619 22.712C123.121 22.1 122.554 21.658 121.919 21.386C121.307 21.114 120.639 20.978 119.913 20.978C119.256 20.978 118.746 21.08 118.383 21.284C118.043 21.488 117.873 21.7713 117.873 22.134C117.873 22.542 118.066 22.8593 118.451 23.086C118.859 23.3127 119.381 23.5167 120.015 23.698C120.65 23.8567 121.307 24.0493 121.987 24.276C122.69 24.48 123.347 24.7747 123.959 25.16C124.594 25.5453 125.104 26.0553 125.489 26.69C125.897 27.3247 126.101 28.1407 126.101 29.138C126.101 30.7473 125.523 32.028 124.367 32.98C123.211 33.9093 121.636 34.374 119.641 34.374ZM136.857 34.34C135.179 34.34 133.672 33.966 132.335 33.218C130.997 32.47 129.943 31.45 129.173 30.158C128.402 28.866 128.017 27.4153 128.017 25.806C128.017 24.174 128.402 22.712 129.173 21.42C129.943 20.128 130.997 19.108 132.335 18.36C133.695 17.5893 135.202 17.204 136.857 17.204C138.149 17.204 139.339 17.442 140.427 17.918C141.515 18.394 142.455 19.074 143.249 19.958L140.393 22.848C139.962 22.372 139.441 22.0093 138.829 21.76C138.239 21.5107 137.582 21.386 136.857 21.386C136.041 21.386 135.304 21.5787 134.647 21.964C134.012 22.3267 133.502 22.8367 133.117 23.494C132.754 24.1287 132.573 24.888 132.573 25.772C132.573 26.6333 132.754 27.404 133.117 28.084C133.502 28.7413 134.012 29.2627 134.647 29.648C135.304 30.0107 136.041 30.192 136.857 30.192C137.605 30.192 138.273 30.0673 138.863 29.818C139.475 29.546 139.996 29.1607 140.427 28.662L143.317 31.552C142.478 32.4587 141.515 33.15 140.427 33.626C139.339 34.102 138.149 34.34 136.857 34.34ZM145.839 34V17.578H150.293V34H145.839ZM150.293 24.922L148.559 23.766C148.763 21.7487 149.353 20.162 150.327 19.006C151.302 17.8273 152.707 17.238 154.543 17.238C155.337 17.238 156.051 17.374 156.685 17.646C157.32 17.8953 157.898 18.3147 158.419 18.904L155.631 22.1C155.382 21.828 155.076 21.624 154.713 21.488C154.373 21.352 153.977 21.284 153.523 21.284C152.571 21.284 151.789 21.59 151.177 22.202C150.588 22.7913 150.293 23.698 150.293 24.922ZM159.984 34V17.578H164.472V34H159.984ZM162.228 14.926C161.502 14.926 160.902 14.688 160.426 14.212C159.95 13.7133 159.712 13.1013 159.712 12.376C159.712 11.6733 159.95 11.0727 160.426 10.574C160.902 10.0753 161.502 9.826 162.228 9.826C162.976 9.826 163.576 10.0753 164.03 10.574C164.506 11.0727 164.744 11.6733 164.744 12.376C164.744 13.1013 164.506 13.7133 164.03 14.212C163.576 14.688 162.976 14.926 162.228 14.926ZM177.529 34.34C176.351 34.34 175.285 34.102 174.333 33.626C173.381 33.1273 172.622 32.4587 172.055 31.62C171.489 30.7813 171.183 29.818 171.137 28.73V22.916C171.183 21.828 171.489 20.8647 172.055 20.026C172.645 19.1647 173.404 18.4847 174.333 17.986C175.285 17.4873 176.351 17.238 177.529 17.238C179.048 17.238 180.408 17.612 181.609 18.36C182.811 19.108 183.751 20.128 184.431 21.42C185.134 22.712 185.485 24.174 185.485 25.806C185.485 27.4153 185.134 28.866 184.431 30.158C183.751 31.45 182.811 32.47 181.609 33.218C180.408 33.966 179.048 34.34 177.529 34.34ZM168.417 40.868V17.578H172.871V21.896L172.123 25.874L172.837 29.852V40.868H168.417ZM176.747 30.226C177.563 30.226 178.289 30.0447 178.923 29.682C179.558 29.2967 180.045 28.7753 180.385 28.118C180.748 27.438 180.929 26.656 180.929 25.772C180.929 24.9107 180.748 24.1513 180.385 23.494C180.045 22.814 179.558 22.2927 178.923 21.93C178.289 21.5447 177.563 21.352 176.747 21.352C175.954 21.352 175.24 21.5447 174.605 21.93C173.971 22.2927 173.472 22.814 173.109 23.494C172.769 24.1513 172.599 24.9107 172.599 25.772C172.599 26.656 172.769 27.438 173.109 28.118C173.472 28.7753 173.959 29.2967 174.571 29.682C175.206 30.0447 175.931 30.226 176.747 30.226ZM190.421 34V10.744H194.875V34H190.421ZM186.579 21.488V17.578H198.717V21.488H186.579ZM208.542 34.34C206.887 34.34 205.391 33.966 204.054 33.218C202.739 32.4473 201.685 31.416 200.892 30.124C200.121 28.8093 199.736 27.3473 199.736 25.738C199.736 24.1287 200.121 22.6893 200.892 21.42C201.662 20.128 202.716 19.108 204.054 18.36C205.391 17.5893 206.876 17.204 208.508 17.204C210.185 17.204 211.681 17.5893 212.996 18.36C214.333 19.108 215.387 20.128 216.158 21.42C216.928 22.6893 217.314 24.1287 217.314 25.738C217.314 27.3473 216.928 28.8093 216.158 30.124C215.387 31.416 214.333 32.4473 212.996 33.218C211.681 33.966 210.196 34.34 208.542 34.34ZM208.508 30.192C209.346 30.192 210.083 30.0107 210.718 29.648C211.375 29.2627 211.874 28.7413 212.214 28.084C212.576 27.404 212.758 26.6333 212.758 25.772C212.758 24.9107 212.576 24.1513 212.214 23.494C211.851 22.8367 211.352 22.3267 210.718 21.964C210.083 21.5787 209.346 21.386 208.508 21.386C207.692 21.386 206.966 21.5787 206.332 21.964C205.697 22.3267 205.198 22.8367 204.836 23.494C204.473 24.1513 204.292 24.9107 204.292 25.772C204.292 26.6333 204.473 27.404 204.836 28.084C205.198 28.7413 205.697 29.2627 206.332 29.648C206.966 30.0107 207.692 30.192 208.508 30.192Z" fill="#000B6D"/>
<path d="M117.815 53V51.669H119.784C120.283 51.669 120.719 51.5663 121.093 51.361C121.467 51.1483 121.757 50.8513 121.962 50.47C122.175 50.0887 122.281 49.6377 122.281 49.117C122.281 48.611 122.175 48.171 121.962 47.797C121.749 47.4157 121.456 47.1223 121.082 46.917C120.708 46.7043 120.275 46.598 119.784 46.598H117.782V45.267H119.806C120.378 45.267 120.906 45.3623 121.39 45.553C121.881 45.7437 122.307 46.015 122.666 46.367C123.033 46.7117 123.315 47.1187 123.513 47.588C123.718 48.0573 123.821 48.5707 123.821 49.128C123.821 49.6853 123.718 50.2023 123.513 50.679C123.315 51.1483 123.036 51.559 122.677 51.911C122.318 52.2557 121.892 52.5233 121.401 52.714C120.917 52.9047 120.393 53 119.828 53H117.815ZM116.792 53V45.267H118.288V53H116.792ZM127.397 53.11C126.839 53.11 126.344 52.9927 125.912 52.758C125.479 52.516 125.134 52.186 124.878 51.768C124.628 51.35 124.504 50.8733 124.504 50.338C124.504 49.81 124.625 49.3407 124.867 48.93C125.116 48.512 125.453 48.182 125.879 47.94C126.304 47.6907 126.777 47.566 127.298 47.566C127.811 47.566 128.262 47.6833 128.651 47.918C129.047 48.1453 129.355 48.4607 129.575 48.864C129.802 49.26 129.916 49.711 129.916 50.217C129.916 50.3123 129.908 50.4113 129.894 50.514C129.886 50.6093 129.868 50.7193 129.839 50.844L125.373 50.855V49.777L129.168 49.766L128.585 50.217C128.57 49.9017 128.511 49.6377 128.409 49.425C128.313 49.2123 128.17 49.051 127.98 48.941C127.796 48.8237 127.569 48.765 127.298 48.765C127.012 48.765 126.762 48.831 126.55 48.963C126.337 49.0877 126.172 49.2673 126.055 49.502C125.945 49.7293 125.89 50.0007 125.89 50.316C125.89 50.6387 125.948 50.921 126.066 51.163C126.19 51.3977 126.366 51.581 126.594 51.713C126.821 51.8377 127.085 51.9 127.386 51.9C127.657 51.9 127.903 51.856 128.123 51.768C128.343 51.6727 128.533 51.5333 128.695 51.35L129.542 52.197C129.285 52.4977 128.97 52.725 128.596 52.879C128.229 53.033 127.829 53.11 127.397 53.11ZM132.448 53L130.105 47.687H131.689L133.372 52.065H132.591L134.285 47.687H135.814L133.482 53H132.448ZM139.881 53V51.779H141.894C142.254 51.779 142.532 51.669 142.73 51.449C142.936 51.229 143.038 50.9687 143.038 50.668C143.038 50.4627 142.994 50.2757 142.906 50.107C142.818 49.9383 142.686 49.8063 142.51 49.711C142.342 49.6083 142.136 49.557 141.894 49.557H139.881V48.347H141.729C142.037 48.347 142.283 48.27 142.466 48.116C142.657 47.962 142.752 47.731 142.752 47.423C142.752 47.1077 142.657 46.873 142.466 46.719C142.283 46.565 142.037 46.488 141.729 46.488H139.881V45.267H141.905C142.419 45.267 142.848 45.3623 143.192 45.553C143.544 45.7363 143.808 45.982 143.984 46.29C144.16 46.5907 144.248 46.9207 144.248 47.28C144.248 47.72 144.113 48.1013 143.841 48.424C143.577 48.7393 143.189 48.974 142.675 49.128L142.741 48.644C143.313 48.8053 143.753 49.073 144.061 49.447C144.377 49.8137 144.534 50.2573 144.534 50.778C144.534 51.1887 144.432 51.5627 144.226 51.9C144.028 52.23 143.735 52.4977 143.346 52.703C142.965 52.901 142.499 53 141.949 53H139.881ZM138.781 53V45.267H140.266V53H138.781ZM147.239 53.044L145.017 47.687H146.579L148.053 51.779H147.525L149.054 47.687H150.627L148.262 53.044H147.239ZM145.765 55.222L147.382 51.801L148.262 53.044L147.294 55.222H145.765ZM156.893 53L154.836 50.261L156.882 47.687H158.543L156.145 50.591L156.2 49.887L158.653 53H156.893ZM153.505 53V45.047H154.946V53H153.505ZM159.145 53V47.687H160.586V53H159.145ZM160.586 50.063L160.025 49.689C160.091 49.0363 160.282 48.523 160.597 48.149C160.912 47.7677 161.367 47.577 161.961 47.577C162.218 47.577 162.449 47.621 162.654 47.709C162.859 47.7897 163.046 47.9253 163.215 48.116L162.313 49.15C162.232 49.062 162.133 48.996 162.016 48.952C161.906 48.908 161.778 48.886 161.631 48.886C161.323 48.886 161.07 48.985 160.872 49.183C160.681 49.3737 160.586 49.667 160.586 50.063ZM163.721 53V47.687H165.173V53H163.721ZM164.447 46.829C164.212 46.829 164.018 46.752 163.864 46.598C163.71 46.4367 163.633 46.2387 163.633 46.004C163.633 45.7767 163.71 45.5823 163.864 45.421C164.018 45.2597 164.212 45.179 164.447 45.179C164.689 45.179 164.883 45.2597 165.03 45.421C165.184 45.5823 165.261 45.7767 165.261 46.004C165.261 46.2387 165.184 46.4367 165.03 46.598C164.883 46.752 164.689 46.829 164.447 46.829ZM168.276 53.121C167.975 53.121 167.678 53.0807 167.385 53C167.099 52.9193 166.835 52.8093 166.593 52.67C166.351 52.5233 166.142 52.3473 165.966 52.142L166.824 51.273C167.007 51.4783 167.22 51.6323 167.462 51.735C167.704 51.8377 167.971 51.889 168.265 51.889C168.499 51.889 168.675 51.856 168.793 51.79C168.917 51.724 168.98 51.625 168.98 51.493C168.98 51.3463 168.914 51.2327 168.782 51.152C168.657 51.0713 168.492 51.0053 168.287 50.954C168.081 50.8953 167.865 50.833 167.638 50.767C167.418 50.6937 167.205 50.602 167 50.492C166.794 50.3747 166.626 50.217 166.494 50.019C166.369 49.8137 166.307 49.5497 166.307 49.227C166.307 48.8897 166.387 48.5963 166.549 48.347C166.717 48.0977 166.956 47.9033 167.264 47.764C167.572 47.6247 167.935 47.555 168.353 47.555C168.793 47.555 169.189 47.632 169.541 47.786C169.9 47.94 170.197 48.171 170.432 48.479L169.563 49.348C169.401 49.15 169.218 49.007 169.013 48.919C168.815 48.831 168.598 48.787 168.364 48.787C168.151 48.787 167.986 48.82 167.869 48.886C167.759 48.952 167.704 49.0437 167.704 49.161C167.704 49.293 167.766 49.3957 167.891 49.469C168.023 49.5423 168.191 49.6083 168.397 49.667C168.602 49.7183 168.815 49.7807 169.035 49.854C169.262 49.92 169.475 50.0153 169.673 50.14C169.878 50.2647 170.043 50.4297 170.168 50.635C170.3 50.8403 170.366 51.1043 170.366 51.427C170.366 51.9477 170.179 52.362 169.805 52.67C169.431 52.9707 168.921 53.121 168.276 53.121ZM174.912 53V49.953C174.912 49.6377 174.813 49.381 174.615 49.183C174.417 48.985 174.161 48.886 173.845 48.886C173.64 48.886 173.457 48.93 173.295 49.018C173.134 49.106 173.006 49.2307 172.91 49.392C172.822 49.5533 172.778 49.7403 172.778 49.953L172.217 49.667C172.217 49.249 172.305 48.886 172.481 48.578C172.657 48.2627 172.899 48.017 173.207 47.841C173.523 47.665 173.882 47.577 174.285 47.577C174.689 47.577 175.044 47.665 175.352 47.841C175.668 48.017 175.913 48.259 176.089 48.567C176.265 48.875 176.353 49.2307 176.353 49.634V53H174.912ZM171.337 53V45.047H172.778V53H171.337ZM179.34 53.121C179.039 53.121 178.742 53.0807 178.449 53C178.163 52.9193 177.899 52.8093 177.657 52.67C177.415 52.5233 177.206 52.3473 177.03 52.142L177.888 51.273C178.071 51.4783 178.284 51.6323 178.526 51.735C178.768 51.8377 179.036 51.889 179.329 51.889C179.564 51.889 179.74 51.856 179.857 51.79C179.982 51.724 180.044 51.625 180.044 51.493C180.044 51.3463 179.978 51.2327 179.846 51.152C179.721 51.0713 179.556 51.0053 179.351 50.954C179.146 50.8953 178.929 50.833 178.702 50.767C178.482 50.6937 178.269 50.602 178.064 50.492C177.859 50.3747 177.69 50.217 177.558 50.019C177.433 49.8137 177.371 49.5497 177.371 49.227C177.371 48.8897 177.452 48.5963 177.613 48.347C177.782 48.0977 178.02 47.9033 178.328 47.764C178.636 47.6247 178.999 47.555 179.417 47.555C179.857 47.555 180.253 47.632 180.605 47.786C180.964 47.94 181.261 48.171 181.496 48.479L180.627 49.348C180.466 49.15 180.282 49.007 180.077 48.919C179.879 48.831 179.663 48.787 179.428 48.787C179.215 48.787 179.05 48.82 178.933 48.886C178.823 48.952 178.768 49.0437 178.768 49.161C178.768 49.293 178.83 49.3957 178.955 49.469C179.087 49.5423 179.256 49.6083 179.461 49.667C179.666 49.7183 179.879 49.7807 180.099 49.854C180.326 49.92 180.539 50.0153 180.737 50.14C180.942 50.2647 181.107 50.4297 181.232 50.635C181.364 50.8403 181.43 51.1043 181.43 51.427C181.43 51.9477 181.243 52.362 180.869 52.67C180.495 52.9707 179.985 53.121 179.34 53.121ZM184.624 53.11C184.14 53.11 183.703 52.989 183.315 52.747C182.926 52.505 182.622 52.175 182.402 51.757C182.182 51.339 182.072 50.8697 182.072 50.349C182.072 49.821 182.182 49.348 182.402 48.93C182.622 48.512 182.926 48.182 183.315 47.94C183.703 47.698 184.14 47.577 184.624 47.577C185.005 47.577 185.346 47.654 185.647 47.808C185.947 47.962 186.186 48.1783 186.362 48.457C186.545 48.7283 186.644 49.0363 186.659 49.381V51.295C186.644 51.647 186.545 51.9587 186.362 52.23C186.186 52.5013 185.947 52.7177 185.647 52.879C185.346 53.033 185.005 53.11 184.624 53.11ZM184.888 51.779C185.291 51.779 185.617 51.647 185.867 51.383C186.116 51.1117 186.241 50.7633 186.241 50.338C186.241 50.0593 186.182 49.8137 186.065 49.601C185.955 49.381 185.797 49.2123 185.592 49.095C185.394 48.9703 185.159 48.908 184.888 48.908C184.624 48.908 184.389 48.9703 184.184 49.095C183.986 49.2123 183.828 49.381 183.711 49.601C183.601 49.8137 183.546 50.0593 183.546 50.338C183.546 50.624 183.601 50.877 183.711 51.097C183.828 51.3097 183.986 51.4783 184.184 51.603C184.389 51.7203 184.624 51.779 184.888 51.779ZM186.164 53V51.57L186.395 50.272L186.164 48.996V47.687H187.594V53H186.164ZM189.649 53V45.476H191.09V53H189.649ZM188.406 48.952V47.687H192.333V48.952H188.406ZM195.237 53.11C194.753 53.11 194.317 52.989 193.928 52.747C193.539 52.505 193.235 52.175 193.015 51.757C192.795 51.339 192.685 50.8697 192.685 50.349C192.685 49.821 192.795 49.348 193.015 48.93C193.235 48.512 193.539 48.182 193.928 47.94C194.317 47.698 194.753 47.577 195.237 47.577C195.618 47.577 195.959 47.654 196.26 47.808C196.561 47.962 196.799 48.1783 196.975 48.457C197.158 48.7283 197.257 49.0363 197.272 49.381V51.295C197.257 51.647 197.158 51.9587 196.975 52.23C196.799 52.5013 196.561 52.7177 196.26 52.879C195.959 53.033 195.618 53.11 195.237 53.11ZM195.501 51.779C195.904 51.779 196.231 51.647 196.48 51.383C196.729 51.1117 196.854 50.7633 196.854 50.338C196.854 50.0593 196.795 49.8137 196.678 49.601C196.568 49.381 196.41 49.2123 196.205 49.095C196.007 48.9703 195.772 48.908 195.501 48.908C195.237 48.908 195.002 48.9703 194.797 49.095C194.599 49.2123 194.441 49.381 194.324 49.601C194.214 49.8137 194.159 50.0593 194.159 50.338C194.159 50.624 194.214 50.877 194.324 51.097C194.441 51.3097 194.599 51.4783 194.797 51.603C195.002 51.7203 195.237 51.779 195.501 51.779ZM196.777 53V51.57L197.008 50.272L196.777 48.996V47.687H198.207V53H196.777ZM201.308 53.121C201.007 53.121 200.71 53.0807 200.417 53C200.131 52.9193 199.867 52.8093 199.625 52.67C199.383 52.5233 199.174 52.3473 198.998 52.142L199.856 51.273C200.039 51.4783 200.252 51.6323 200.494 51.735C200.736 51.8377 201.003 51.889 201.297 51.889C201.531 51.889 201.707 51.856 201.825 51.79C201.949 51.724 202.012 51.625 202.012 51.493C202.012 51.3463 201.946 51.2327 201.814 51.152C201.689 51.0713 201.524 51.0053 201.319 50.954C201.113 50.8953 200.897 50.833 200.67 50.767C200.45 50.6937 200.237 50.602 200.032 50.492C199.826 50.3747 199.658 50.217 199.526 50.019C199.401 49.8137 199.339 49.5497 199.339 49.227C199.339 48.8897 199.419 48.5963 199.581 48.347C199.749 48.0977 199.988 47.9033 200.296 47.764C200.604 47.6247 200.967 47.555 201.385 47.555C201.825 47.555 202.221 47.632 202.573 47.786C202.932 47.94 203.229 48.171 203.464 48.479L202.595 49.348C202.433 49.15 202.25 49.007 202.045 48.919C201.847 48.831 201.63 48.787 201.396 48.787C201.183 48.787 201.018 48.82 200.901 48.886C200.791 48.952 200.736 49.0437 200.736 49.161C200.736 49.293 200.798 49.3957 200.923 49.469C201.055 49.5423 201.223 49.6083 201.429 49.667C201.634 49.7183 201.847 49.7807 202.067 49.854C202.294 49.92 202.507 50.0153 202.705 50.14C202.91 50.2647 203.075 50.4297 203.2 50.635C203.332 50.8403 203.398 51.1043 203.398 51.427C203.398 51.9477 203.211 52.362 202.837 52.67C202.463 52.9707 201.953 53.121 201.308 53.121ZM204.369 53V47.687H205.821V53H204.369ZM205.095 46.829C204.861 46.829 204.666 46.752 204.512 46.598C204.358 46.4367 204.281 46.2387 204.281 46.004C204.281 45.7767 204.358 45.5823 204.512 45.421C204.666 45.2597 204.861 45.179 205.095 45.179C205.337 45.179 205.532 45.2597 205.678 45.421C205.832 45.5823 205.909 45.7767 205.909 46.004C205.909 46.2387 205.832 46.4367 205.678 46.598C205.532 46.752 205.337 46.829 205.095 46.829ZM208.77 53.044L206.548 47.687H208.11L209.584 51.779H209.056L210.585 47.687H212.158L209.793 53.044H208.77ZM207.296 55.222L208.913 51.801L209.793 53.044L208.825 55.222H207.296ZM214.874 53.11C214.39 53.11 213.953 52.989 213.565 52.747C213.176 52.505 212.872 52.175 212.652 51.757C212.432 51.339 212.322 50.8697 212.322 50.349C212.322 49.821 212.432 49.348 212.652 48.93C212.872 48.512 213.176 48.182 213.565 47.94C213.953 47.698 214.39 47.577 214.874 47.577C215.255 47.577 215.596 47.654 215.897 47.808C216.197 47.962 216.436 48.1783 216.612 48.457C216.795 48.7283 216.894 49.0363 216.909 49.381V51.295C216.894 51.647 216.795 51.9587 216.612 52.23C216.436 52.5013 216.197 52.7177 215.897 52.879C215.596 53.033 215.255 53.11 214.874 53.11ZM215.138 51.779C215.541 51.779 215.867 51.647 216.117 51.383C216.366 51.1117 216.491 50.7633 216.491 50.338C216.491 50.0593 216.432 49.8137 216.315 49.601C216.205 49.381 216.047 49.2123 215.842 49.095C215.644 48.9703 215.409 48.908 215.138 48.908C214.874 48.908 214.639 48.9703 214.434 49.095C214.236 49.2123 214.078 49.381 213.961 49.601C213.851 49.8137 213.796 50.0593 213.796 50.338C213.796 50.624 213.851 50.877 213.961 51.097C214.078 51.3097 214.236 51.4783 214.434 51.603C214.639 51.7203 214.874 51.779 215.138 51.779ZM216.414 53V51.57L216.645 50.272L216.414 48.996V47.687H217.844V53H216.414Z" fill="#525252"/>
</svg>
