<svg width="20" height="20" viewBox="0 0 20 20" fill="none" xmlns="http://www.w3.org/2000/svg">
  <path d="M17.5 10.8333V14.1667H16.25V15.8333C16.25 16.2754 16.0744 16.6993 15.7618 17.0118C15.4493 17.3244 15.0254 17.5 14.5833 17.5C14.1413 17.5 13.7174 17.3244 13.4048 17.0118C13.0923 16.6993 12.9167 16.2754 12.9167 15.8333V14.1667H7.08333V15.8333C7.08333 16.2754 6.90774 16.6993 6.59518 17.0118C6.28262 17.3244 5.85869 17.5 5.41667 17.5C4.97464 17.5 4.55071 17.3244 4.23816 17.0118C3.9256 16.6993 3.75 16.2754 3.75 15.8333V14.1667H2.5V10.8333H17.5ZM5.41667 15.8333C5.41667 15.6123 5.32887 15.4004 5.17259 15.2441C5.01631 15.0878 4.8044 15 4.58333 15C4.36226 15 4.15036 15.0878 3.99408 15.2441C3.8378 15.4004 3.75 15.6123 3.75 15.8333C3.75 16.0544 3.8378 16.2663 3.99408 16.4226C4.15036 16.5789 4.36226 16.6667 4.58333 16.6667C4.8044 16.6667 5.01631 16.5789 5.17259 16.4226C5.32887 16.2663 5.41667 16.0544 5.41667 15.8333ZM15.4167 15.8333C15.4167 15.6123 15.3289 15.4004 15.1726 15.2441C15.0163 15.0878 14.8044 15 14.5833 15C14.3623 15 14.1504 15.0878 13.9941 15.2441C13.8378 15.4004 13.75 15.6123 13.75 15.8333C13.75 16.0544 13.8378 16.2663 13.9941 16.4226C14.1504 16.5789 14.3623 16.6667 14.5833 16.6667C14.8044 16.6667 15.0163 16.5789 15.1726 16.4226C15.3289 16.2663 15.4167 16.0544 15.4167 15.8333ZM17.5 9.16667H2.5V5.83333L4.58333 2.5H15.4167L17.5 5.83333V9.16667ZM15.4167 5.83333L14.1667 3.33333H5.83333L4.58333 5.83333H15.4167Z" fill="#515151"/>
</svg>